<?xml version="1.0" encoding="UTF-8"?>
<svg xmlns="http://www.w3.org/2000/svg" xmlns:xlink="http://www.w3.org/1999/xlink" width="128px" height="128px" viewBox="0 0 128 128" version="1.1">
<g id="surface1">
<path style=" stroke:none;fill-rule:nonzero;fill:rgb(0%,0%,0%);fill-opacity:1;" d="M 59.101562 64 C 59.101562 66.707031 61.292969 68.898438 64 68.898438 C 66.707031 68.898438 68.898438 66.707031 68.898438 64 C 68.898438 61.292969 66.707031 59.101562 64 59.101562 C 61.292969 59.101562 59.101562 61.292969 59.101562 64 Z M 59.101562 64 "/>
<path style=" stroke:none;fill-rule:nonzero;fill:rgb(0%,0%,0%);fill-opacity:1;" d="M 44 52.949219 C 45.25 54.199219 46.851562 54.800781 48.449219 54.800781 C 50.050781 54.800781 51.699219 54.199219 52.898438 52.949219 C 55.351562 50.5 55.351562 46.5 52.898438 44 L 15.800781 6.851562 C 13.351562 4.398438 9.351562 4.398438 6.851562 6.851562 C 4.351562 9.300781 4.398438 13.300781 6.851562 15.800781 Z M 44 52.949219 "/>
<path style=" stroke:none;fill-rule:nonzero;fill:rgb(0%,0%,0%);fill-opacity:1;" d="M 79.550781 54.75 C 81.148438 54.75 82.800781 54.148438 84 52.898438 L 121.148438 15.75 C 123.601562 13.300781 123.601562 9.300781 121.148438 6.800781 C 118.699219 4.351562 114.699219 4.351562 112.199219 6.800781 L 75.050781 44 C 72.601562 46.449219 72.601562 50.449219 75.050781 52.949219 C 76.300781 54.148438 77.898438 54.75 79.550781 54.75 Z M 79.550781 54.75 "/>
<path style=" stroke:none;fill-rule:nonzero;fill:rgb(0%,0%,0%);fill-opacity:1;" d="M 112.199219 121.148438 C 113.449219 122.398438 115.050781 123 116.648438 123 C 118.25 123 119.898438 122.398438 121.101562 121.148438 C 123.550781 118.699219 123.550781 114.699219 121.101562 112.199219 L 84 75.050781 C 81.550781 72.601562 77.550781 72.601562 75.050781 75.050781 C 72.601562 77.5 72.601562 81.5 75.050781 84 Z M 112.199219 121.148438 "/>
<path style=" stroke:none;fill-rule:nonzero;fill:rgb(0%,0%,0%);fill-opacity:1;" d="M 11.300781 123 C 12.898438 123 14.550781 122.398438 15.75 121.148438 L 52.898438 84 C 55.351562 81.550781 55.351562 77.550781 52.898438 75.050781 C 50.449219 72.601562 46.449219 72.601562 43.949219 75.050781 L 6.800781 112.199219 C 4.351562 114.648438 4.351562 118.648438 6.800781 121.148438 C 8.101562 122.398438 9.699219 123 11.300781 123 Z M 11.300781 123 "/>
</g>
</svg>
